<svg xmlns="http://www.w3.org/2000/svg" viewBox="0 0 64 64"><g data-name="Glyph"><path d="M57,2H7A5,5,0,0,0,2,7V57a5,5,0,0,0,5,5H57a5,5,0,0,0,5-5V7A5,5,0,0,0,57,2ZM16.13,7.71a1.734,1.734,0,0,1,2.74.01c2.35,3.36,6.3,9.47,6.3,12.61a7.67,7.67,0,0,1-15.34,0C9.83,17.19,13.78,11.08,16.13,7.71ZM31,60H7a3.009,3.009,0,0,1-3-3V33H31Zm20.17-4.47H41.83A6.615,6.615,0,0,1,35,49.18a6.431,6.431,0,0,1,4.71-6.04c.32-3.27,3.51-5.72,6.79-5.67a6.69,6.69,0,0,1,6.79,5.67A6.431,6.431,0,0,1,58,49.18,6.615,6.615,0,0,1,51.17,55.53ZM60,31H33V4H57a3.009,3.009,0,0,1,3,3Z"/><path d="M52.14 44.91a1 1 0 01-.82-1.01c.11-2.52-2.35-4.49-4.82-4.43-2.47-.05-4.93 1.92-4.82 4.43a1 1 0 01-.82 1.01A4.513 4.513 0 0037 49.18a4.615 4.615 0 004.83 4.35h9.34A4.615 4.615 0 0056 49.18 4.513 4.513 0 0052.14 44.91zM8 46.5h9a4 4 0 10-2.943-6.708 1 1 0 001.472 1.354A1.976 1.976 0 0117 40.5a2 2 0 010 4H8a1 1 0 000 2zM23.529 48.146A1.976 1.976 0 0125 47.5a2 2 0 010 4H12a1 1 0 000 2H25a4 4 0 10-2.943-6.708 1 1 0 001.472 1.354zM57.11 13.45L54.6 11.63 53.63 8.7a.987.987 0 00-.94-.69l-3.11-.02-2.52-1.8a.991.991 0 00-1.16 0l-2.52 1.8-3.11.02a1.009 1.009 0 00-.95.69l-.97 2.93-2.5 1.82a1 1 0 00-.37 1.11l.95 2.94-.95 2.94a1 1 0 00.37 1.11l2.5 1.82.97 2.93a1.009 1.009 0 00.95.69l3.11.02 2.52 1.8a.991.991 0 001.16 0l2.52-1.8 3.11-.02a.987.987 0 00.94-.69l.97-2.93 2.51-1.82a.977.977 0 00.36-1.11l-.95-2.94.95-2.94A.977.977 0 0057.11 13.45zM46.5 24A6.5 6.5 0 1153 17.5 6.513 6.513 0 0146.5 24z"/><circle cx="46.5" cy="17.5" r="4.5"/><path d="M17.5,26a5.678,5.678,0,0,0,5.67-5.67c0-2.13-2.88-7.05-5.67-11.08-2.79,4.04-5.67,8.95-5.67,11.08A5.678,5.678,0,0,0,17.5,26Z"/><circle cx="8" cy="52.5" r="1"/></g></svg>