<svg xmlns="http://www.w3.org/2000/svg" viewBox="0 0 24 24"><g data-name="Clear Night"><path fill="none" stroke="white" stroke-linecap="round" stroke-linejoin="round" d="M7,18.5A11.49,11.49,0,0,0,17.23,1.77,11.49,11.49,0,1,1,1.77,17.23,11.44,11.44,0,0,0,7,18.5Z"/><path fill="none" stroke="white" stroke-linecap="round" stroke-linejoin="round" d="M9.5 8.5a4 4 0 00-4-4 4 4 0 004-4 4 4 0 004 4A4 4 0 009.5 8.5zM3.5 14.5a3 3 0 00-3-3 3 3 0 003-3 3 3 0 003 3A3 3 0 003.5 14.5z" data-name="&lt;Path&gt;"/></g></svg>