<svg xmlns="http://www.w3.org/2000/svg" viewBox="0 0 24 24"><g data-name="Cloudy Night"><path fill="none" stroke="white" stroke-linecap="round" stroke-linejoin="round" d="M14.49 13.26A4.5 4.5 0 1117 21.5H4a3.5 3.5 0 110-7M3 14.66a6.49 6.49 0 0112.57-1.92"/><path fill="none" stroke="white" stroke-linecap="round" stroke-linejoin="round" d="M15.25 12A6.75 6.75 0 0019.5 5.75 6.34 6.34 0 0019 3.5 6.65 6.65 0 0121 15M13.5 6.5a1.77 1.77 0 00-2-2 1.77 1.77 0 002-2 1.77 1.77 0 002 2 1.77 1.77 0 00-2 2z"/></g></svg>