<svg xmlns="http://www.w3.org/2000/svg" viewBox="0 0 24 24"><g data-name="Hard Rain"><path fill="none" stroke="white" stroke-linecap="round" stroke-linejoin="round" d="M1.94 21.7h0L3.5 20.5v2a1 1 0 01-2 0A1 1 0 011.94 21.7zM5.94 19.7h0L7.5 18.5v2a1 1 0 01-2 0A1 1 0 015.94 19.7zM9.94 21.7h0l1.56-1.2v2a1 1 0 01-2 0A1 1 0 019.94 21.7zM13.94 19.7h0l1.56-1.2v2a1 1 0 01-2 0A1 1 0 0113.94 19.7zM17.94 21.7h0l1.56-1.2v2a1 1 0 01-2 0A1 1 0 0117.94 21.7zM16.49 5.26A4.5 4.5 0 1119 13.5H17.72M2.65 11a3.46 3.46 0 01-.15-1A3.5 3.5 0 016 6.5M5 6.61A6.49 6.49 0 0117.59 4.73"/><path fill="none" stroke="white" stroke-linecap="round" stroke-linejoin="round" d="M15.5 12.5a3 3 0 010 6H4.5A4 4 0 117 11.38M6 10.79a5.49 5.49 0 0110.52 1.89"/></g></svg>