<svg xmlns="http://www.w3.org/2000/svg" viewBox="0 0 24 24"><g data-name="Hard Rainy Day"><path fill="none" stroke="white" stroke-linecap="round" stroke-linejoin="round" d="M14.49 10.26A4.5 4.5 0 1117 18.5H4a3.5 3.5 0 110-7M3 11.66A6.49 6.49 0 0115.59 9.73M11.78 5.93a5 5 0 118.42 4.91"/><line x1="23.5" x2="21.5" y1="7.5" y2="7.5" fill="none" stroke="white" stroke-linecap="round" stroke-linejoin="round"/><line x1="12.96" x2="11.55" y1="3.96" y2="2.55" fill="none" stroke="white" stroke-linecap="round" stroke-linejoin="round"/><line x1="16.5" x2="16.5" y1="2.5" y2=".5" fill="none" stroke="white" stroke-linecap="round" stroke-linejoin="round"/><line x1="20.04" x2="21.45" y1="3.96" y2="2.55" fill="none" stroke="white" stroke-linecap="round" stroke-linejoin="round"/><path fill="none" stroke="white" stroke-linecap="round" stroke-linejoin="round" d="M1.94 21.7h0L3.5 20.5v2a1 1 0 01-2 0A1 1 0 011.94 21.7zM5.94 19.7h0L7.5 18.5v2a1 1 0 01-2 0A1 1 0 015.94 19.7zM9.94 21.7h0l1.56-1.2v2a1 1 0 01-2 0A1 1 0 019.94 21.7zM13.94 19.7h0l1.56-1.2v2a1 1 0 01-2 0A1 1 0 0113.94 19.7z"/></g></svg>