<svg xmlns="http://www.w3.org/2000/svg" viewBox="0 0 24 24"><g data-name="Rainy Night"><path fill="none" stroke="white" stroke-linecap="round" stroke-linejoin="round" d="M9.5 22a1.5 1.5 0 003 0c0-.83-1.5-3.5-1.5-3.5S9.5 21.17 9.5 22zM7.5 22.5a6.61 6.61 0 00-1-2 6.61 6.61 0 00-1 2 1 1 0 102 0zM16.5 20.5a6.61 6.61 0 00-1-2 6.61 6.61 0 00-1 2 1 1 0 002 0zM14.49 10.26A4.5 4.5 0 1117 18.5H4a3.5 3.5 0 110-7M3 11.66A6.49 6.49 0 0115.59 9.73"/><path fill="none" stroke="white" stroke-linecap="round" stroke-linejoin="round" d="M15.25 9A6.75 6.75 0 0019.5 2.75 6.34 6.34 0 0019 .5a6.71 6.71 0 014.5 6.25A6.73 6.73 0 0121 12M13.5 4.5a1.77 1.77 0 00-2-2A1.75 1.75 0 0013 2 1.75 1.75 0 0013.5.5 1.75 1.75 0 0014 2a1.75 1.75 0 001.5.5 1.77 1.77 0 00-2 2z"/></g></svg>