<svg xmlns="http://www.w3.org/2000/svg" viewBox="0 0 24 24"><path fill="none" stroke="white" stroke-linecap="round" stroke-linejoin="round" d="M.94 21.7h0L2.5 20.5v2a1 1 0 01-2 0A1 1 0 01.94 21.7zM14.94 19.7h0l1.56-1.2v2a1 1 0 01-2 0A1 1 0 0114.94 19.7zM10.94 21.7h0l1.56-1.2v2a1 1 0 01-2 0A1 1 0 0110.94 21.7zM19.94 20.7h0l1.56-1.2v2a1 1 0 01-2 0A1 1 0 0119.94 20.7z"/><polygon fill="none" stroke="white" stroke-linecap="round" stroke-linejoin="round" points="8.5 12.5 11.5 13.5 9.5 20 7.5 19 4.5 23.5 6 16 8 17 8.5 12.5"/><path fill="none" stroke="white" stroke-linecap="round" stroke-linejoin="round" d="M16.49 5.26A4.5 4.5 0 1119 13.5H17.72M2.65 11a3.46 3.46 0 01-.15-1A3.5 3.5 0 016 6.5M5 6.61A6.49 6.49 0 0117.59 4.73"/><path fill="none" stroke="white" stroke-linecap="round" stroke-linejoin="round" d="M7 11.38A4 4 0 104.5 18.5h1M15.5 12.5a3 3 0 010 6H10M6 10.79a5.49 5.49 0 0110.52 1.89"/></svg>