<svg xmlns="http://www.w3.org/2000/svg" viewBox="0 0 24 24"><g data-name="Snow Day"><path fill="none" stroke="white" stroke-linecap="round" stroke-linejoin="round" d="M14.49 10.26A4.5 4.5 0 1117 18.5H4a3.5 3.5 0 110-7M3 11.66A6.49 6.49 0 0115.59 9.73M11.78 5.93a5 5 0 118.42 4.91"/><line x1="23.5" x2="21.5" y1="7.5" y2="7.5" fill="none" stroke="white" stroke-linecap="round" stroke-linejoin="round"/><line x1="12.96" x2="11.55" y1="3.96" y2="2.55" fill="none" stroke="white" stroke-linecap="round" stroke-linejoin="round"/><line x1="16.5" x2="16.5" y1="2.5" y2=".5" fill="none" stroke="white" stroke-linecap="round" stroke-linejoin="round"/><line x1="20.04" x2="21.45" y1="3.96" y2="2.55" fill="none" stroke="white" stroke-linecap="round" stroke-linejoin="round"/><line x1="10.5" x2="10.5" y1="18.5" y2="23.5" fill="none" stroke="white" stroke-linecap="round" stroke-linejoin="round"/><line x1="12.67" x2="8.33" y1="19.75" y2="22.25" fill="none" stroke="white" stroke-linecap="round" stroke-linejoin="round"/><line x1="12.67" x2="8.33" y1="22.25" y2="19.75" fill="none" stroke="white" stroke-linecap="round" stroke-linejoin="round"/><line x1="4.5" x2="4.5" y1="20.5" y2="23.5" fill="none" stroke="white" stroke-linecap="round" stroke-linejoin="round"/><line x1="17.5" x2="17.5" y1="20.5" y2="23.5" fill="none" stroke="white" stroke-linecap="round" stroke-linejoin="round"/><line x1="5.8" x2="3.2" y1="21.25" y2="22.75" fill="none" stroke="white" stroke-linecap="round" stroke-linejoin="round"/><line x1="5.8" x2="3.2" y1="22.75" y2="21.25" fill="none" stroke="white" stroke-linecap="round" stroke-linejoin="round"/><line x1="18.8" x2="16.2" y1="21.25" y2="22.75" fill="none" stroke="white" stroke-linecap="round" stroke-linejoin="round"/><line x1="18.8" x2="16.2" y1="22.75" y2="21.25" fill="none" stroke="white" stroke-linecap="round" stroke-linejoin="round"/></g></svg>