<svg xmlns="http://www.w3.org/2000/svg" viewBox="0 0 24 24"><g data-name="Snow Night"><path fill="none" stroke="white" stroke-linecap="round" stroke-linejoin="round" d="M14.49 10.26A4.5 4.5 0 1117 18.5H4a3.5 3.5 0 110-7M3 11.66A6.49 6.49 0 0115.59 9.73"/><path fill="none" stroke="white" stroke-linecap="round" stroke-linejoin="round" d="M15.25 9A6.75 6.75 0 0019.5 2.75 6.34 6.34 0 0019 .5a6.71 6.71 0 014.5 6.25A6.73 6.73 0 0121 12M13.5 4.5a1.77 1.77 0 00-2-2A1.75 1.75 0 0013 2 1.75 1.75 0 0013.5.5 1.75 1.75 0 0014 2a1.75 1.75 0 001.5.5 1.77 1.77 0 00-2 2z"/><line x1="10.5" x2="10.5" y1="18.5" y2="23.5" fill="none" stroke="white" stroke-linecap="round" stroke-linejoin="round"/><line x1="12.67" x2="8.33" y1="19.75" y2="22.25" fill="none" stroke="white" stroke-linecap="round" stroke-linejoin="round"/><line x1="12.67" x2="8.33" y1="22.25" y2="19.75" fill="none" stroke="white" stroke-linecap="round" stroke-linejoin="round"/><line x1="4.5" x2="4.5" y1="20.5" y2="23.5" fill="none" stroke="white" stroke-linecap="round" stroke-linejoin="round"/><line x1="17.5" x2="17.5" y1="20.5" y2="23.5" fill="none" stroke="white" stroke-linecap="round" stroke-linejoin="round"/><line x1="5.8" x2="3.2" y1="21.25" y2="22.75" fill="none" stroke="white" stroke-linecap="round" stroke-linejoin="round"/><line x1="5.8" x2="3.2" y1="22.75" y2="21.25" fill="none" stroke="white" stroke-linecap="round" stroke-linejoin="round"/><line x1="18.8" x2="16.2" y1="21.25" y2="22.75" fill="none" stroke="white" stroke-linecap="round" stroke-linejoin="round"/><line x1="18.8" x2="16.2" y1="22.75" y2="21.25" fill="none" stroke="white" stroke-linecap="round" stroke-linejoin="round"/></g></svg>