<svg xmlns="http://www.w3.org/2000/svg" viewBox="0 0 24 24"><g data-name="Foggy Day"><path fill="none" stroke="white" stroke-linecap="round" stroke-linejoin="round" d="M10.1,20.29A8.5,8.5,0,1,0,3.51,11.5"/><line x1="12" x2="12" y1=".5" y2="3.5" fill="none" stroke="white" stroke-linecap="round" stroke-linejoin="round"/><line x1="12" x2="12" y1="23.5" y2="20.5" fill="none" stroke="white" stroke-linecap="round" stroke-linejoin="round"/><line x1="3.87" x2="5.99" y1="3.87" y2="5.99" fill="none" stroke="white" stroke-linecap="round" stroke-linejoin="round"/><line x1="20.13" x2="18.01" y1="20.13" y2="18.01" fill="none" stroke="white" stroke-linecap="round" stroke-linejoin="round"/><line x1="23.5" x2="20.5" y1="12" y2="12" fill="none" stroke="white" stroke-linecap="round" stroke-linejoin="round"/><line x1="20.13" x2="18.01" y1="3.87" y2="5.99" fill="none" stroke="white" stroke-linecap="round" stroke-linejoin="round"/><path fill="none" stroke="white" stroke-linecap="round" stroke-linejoin="round" d="M.5 10.5c1.44 0 1.44 1 2.87 1s1.44-1 2.87-1 1.44 1 2.88 1 1.44-1 2.88-1M.5 19.5c1.44 0 1.44 1 2.87 1s1.44-1 2.87-1 1.44 1 2.88 1 1.44-1 2.88-1M.5 16.5c1.44 0 1.44 1 2.87 1M6.25 16.5c1.44 0 1.44 1 2.88 1s1.44-1 2.88-1 1.56 1 3 1M.5 13.5c1.44 0 1.44 1 2.87 1s1.44-1 2.87-1M9.12 14.5c1.44 0 1.44-1 2.88-1s1.44 1 2.87 1 1.44-1 2.87-1"/></g></svg>