<svg xmlns="http://www.w3.org/2000/svg" viewBox="0 0 24 24"><g data-name="Foggy Night"><path fill="none" stroke="white" stroke-linecap="round" stroke-linejoin="round" d="M15.93,14.24a11.47,11.47,0,0,0,1.3-12.47A11.49,11.49,0,1,1,4.13,20.38"/><path fill="none" stroke="white" stroke-linecap="round" stroke-linejoin="round" d="M9.5,8.5a4,4,0,0,0-4-4,4,4,0,0,0,4-4,4,4,0,0,0,4,4A4,4,0,0,0,9.5,8.5Z" data-name="&lt;Path&gt;"/><path fill="none" stroke="white" stroke-linecap="round" stroke-linejoin="round" d="M.5 10.5c1.44 0 1.44 1 2.87 1s1.44-1 2.87-1 1.44 1 2.88 1 1.44-1 2.88-1M.5 19.5c1.44 0 1.44 1 2.87 1s1.44-1 2.87-1 1.44 1 2.88 1 1.44-1 2.88-1M.5 16.5c1.44 0 1.44 1 2.87 1M6.25 16.5c1.44 0 1.44 1 2.88 1s1.44-1 2.88-1 1.56 1 3 1M.5 13.5c1.44 0 1.44 1 2.87 1s1.44-1 2.87-1M9.12 14.5c1.44 0 1.44-1 2.88-1s1.44 1 2.87 1 1.44-1 2.87-1"/></g></svg>